<svg width="200" height="347" viewBox="0 0 200 347" fill="none" xmlns="http://www.w3.org/2000/svg">
<rect width="200" height="347" fill="#F5F5F5"/>
<rect x="63" width="75" height="75" rx="25" fill="#CE856C"/>
<rect x="40" y="35" width="120" height="40" rx="10" fill="#DEDCF9"/>
<circle cx="100" cy="247" r="100" fill="#DEDCF9"/>
<rect x="50" y="62" width="100" height="100" fill="#DEDCF9"/>
<path d="M188 246.5C188 294.825 148.825 334 100.5 334C52.1751 334 13 294.825 13 246.5C13 198.175 73.6751 276 122 276C170.325 276 188 198.175 188 246.5Z" fill="#E99BF4"/>
<circle cx="166" cy="271" r="6" fill="#985DF6"/>
<circle cx="127" cy="211" r="3" fill="#985DF6"/>
<circle cx="114" cy="202" r="6" fill="#985DF6"/>
<circle cx="136" cy="190" r="6" fill="#985DF6"/>
<circle cx="25" cy="262" r="3" fill="#985DF6"/>
<circle cx="46" cy="259" r="6" fill="#985DF6"/>
<circle cx="28" cy="247" r="6" fill="#985DF6"/>
<circle cx="151" cy="285" r="3" fill="#985DF6"/>
<rect x="53" y="45" width="20" height="10" rx="5" fill="#F2F2FF"/>
<rect x="80" y="45" width="44" height="10" rx="5" fill="#F2F2FF"/>
</svg>
